<?xml version="1.0" encoding="UTF-8" standalone="no"?>
<!-- Created with Inkscape (http://www.inkscape.org/) -->

<svg
   width="48"
   height="48"
   viewBox="0 0 12.7 12.7"
   version="1.1"
   id="svg5"
   inkscape:version="1.2.1 (9c6d41e410, 2022-07-14, custom)"
   sodipodi:docname="icons.svg"
   inkscape:export-filename="../icons/vol_optical.png"
   inkscape:export-xdpi="96"
   inkscape:export-ydpi="96"
   xml:space="preserve"
   xmlns:inkscape="http://www.inkscape.org/namespaces/inkscape"
   xmlns:sodipodi="http://sodipodi.sourceforge.net/DTD/sodipodi-0.dtd"
   xmlns="http://www.w3.org/2000/svg"
   xmlns:svg="http://www.w3.org/2000/svg"><sodipodi:namedview
     id="namedview7"
     pagecolor="#505050"
     bordercolor="#ffffff"
     borderopacity="1"
     inkscape:showpageshadow="0"
     inkscape:pageopacity="0"
     inkscape:pagecheckerboard="1"
     inkscape:deskcolor="#505050"
     inkscape:document-units="mm"
     showgrid="false"
     inkscape:zoom="11.313709"
     inkscape:cx="-2.4306796"
     inkscape:cy="42.514795"
     inkscape:window-width="3824"
     inkscape:window-height="2120"
     inkscape:window-x="6"
     inkscape:window-y="30"
     inkscape:window-maximized="1"
     inkscape:current-layer="g2948" /><defs
     id="defs2" /><g
     inkscape:label="arrow_left"
     inkscape:groupmode="layer"
     id="layer1"
     style="display:none"
     sodipodi:insensitive="true"><path
       id="rect1850"
       style="fill:#bd93f9;fill-opacity:1;stroke-width:0.125081;stroke-linecap:round;stroke-linejoin:round;paint-order:fill markers stroke"
       d="M 8.803597,1.442806 3.896403,6.35 8.8035968,11.257194 Z" /></g><g
     inkscape:label="arrow_right"
     inkscape:groupmode="layer"
     id="g2948"
     style="display:none"
     sodipodi:insensitive="true"><path
       id="rect2946"
       style="display:inline;fill:#bd93f9;fill-opacity:1;stroke-width:0.125081;stroke-linecap:round;stroke-linejoin:round;paint-order:fill markers stroke"
       d="m 3.895628,1.4412558 -10e-8,9.8174882 4.9087442,-4.9087441 z" /></g><g
     inkscape:groupmode="layer"
     id="layer3"
     inkscape:label="about"
     style="display:none"
     sodipodi:insensitive="true"><circle
       style="fill:none;fill-opacity:1;stroke:#bd93f9;stroke-width:1.2116;stroke-linecap:round;stroke-linejoin:round;stroke-dasharray:none;stroke-opacity:1;paint-order:markers stroke fill"
       id="path4051"
       cx="6.3499999"
       cy="6.3499999"
       r="2.3912323" /><circle
       style="fill:#bd93f9;fill-opacity:1;stroke:none;stroke-width:0.97;stroke-linecap:round;stroke-linejoin:round;stroke-dasharray:none;stroke-opacity:1;paint-order:markers stroke fill"
       id="path4491"
       cx="6.3499999"
       cy="5.2830997"
       r="0.58281648" /><rect
       style="fill:#bd93f9;fill-opacity:1;stroke:none;stroke-width:0.97;stroke-linecap:round;stroke-linejoin:round;stroke-dasharray:none;stroke-opacity:1;paint-order:markers stroke fill"
       id="rect4493"
       width="1.1361377"
       height="1.6498035"
       x="5.7819309"
       y="6.1530685" /></g><g
     inkscape:groupmode="layer"
     id="layer4"
     inkscape:label="csr"
     sodipodi:insensitive="true"
     style="display:none"><path
       id="path4781"
       style="display:inline;fill:#bd93f9;fill-opacity:1;stroke:none;stroke-width:0.264583px;stroke-linecap:butt;stroke-linejoin:miter;stroke-opacity:1"
       d="m 6.3551676,3.5413885 -0.010852,0.00413 -2.3347412,0.8206217 c 0,0 -3.838e-4,2.1890736 0.017053,2.4396444 0.4282116,1.6463767 2.2671822,2.3260212 2.3238892,2.3466268 v 0.0062 c 0,0 1.887941,-0.6765461 2.3228556,-2.3486938 0.01743,-0.2505708 0.017053,-2.4396444 0.017053,-2.4396444 L 6.3551676,3.5491401 Z M 6.35,4.8126288 A 0.77708566,0.77708566 0 0 1 7.1272135,5.5898423 0.77708566,0.77708566 0 0 1 6.6435221,6.3091783 V 7.5835191 H 6.0564779 V 6.3091783 A 0.77708566,0.77708566 0 0 1 5.5727865,5.5898423 0.77708566,0.77708566 0 0 1 6.35,4.8126288 Z" /></g><g
     inkscape:groupmode="layer"
     id="layer5"
     inkscape:label="exit"
     sodipodi:insensitive="true"
     style="display:none"><path
       style="display:inline;fill:#bd93f9;fill-opacity:1;stroke:none;stroke-width:0.264583px;stroke-linecap:butt;stroke-linejoin:miter;stroke-opacity:1"
       d="M 8.7035672,4.0334991 8.0762179,3.9888835 4.0038913,7.9372772 3.9964327,8.6673996 4.6608985,8.7111165 8.6594643,4.6753769 Z"
       id="path5060" /><path
       style="display:inline;fill:#bd93f9;fill-opacity:1;stroke:none;stroke-width:0.264583px;stroke-linecap:butt;stroke-linejoin:miter;stroke-opacity:1"
       d="m 3.9964122,4.0334994 0.627349,-0.044616 4.0723265,3.9483937 0.0075,0.7301224 -0.664466,0.043717 -3.9985655,-4.0357396 z"
       id="path5060-6" /></g><g
     inkscape:groupmode="layer"
     id="layer6"
     inkscape:label="firmware"
     sodipodi:insensitive="true"
     style="display:none"><path
       id="path6583"
       style="fill:#bd93f9;fill-opacity:1;stroke:none;stroke-width:0.264583px;stroke-linecap:butt;stroke-linejoin:miter;stroke-opacity:1"
       d="m 6.8207723,3.5369934 -0.6263184,0.010852 v 0.00103 L 5.8797444,3.5431946 V 4.2232565 L 5.3071696,4.4955913 4.8224446,4.0325704 4.0793375,4.6945455 4.5092854,5.2014913 4.2979288,5.8598491 H 3.536735 V 6.8473857 H 4.2622721 L 4.4736287,7.4654358 4.0441976,7.9274231 4.6710327,8.6674296 5.1371541,8.2927755 5.8466715,8.456073 v 0.7069336 h 0.6697266 v -0.0062 H 6.8538452 V 8.4498719 L 7.5628458,8.2865743 8.029484,8.6612285 8.6558024,7.921222 8.226888,7.4592347 8.4377278,6.8411845 H 9.1632649 V 5.8536479 H 8.4020711 L 8.1912312,5.1952902 8.6206624,4.6883444 7.8775553,4.0263693 7.3928304,4.4893901 6.8207723,4.2170553 Z m -0.5451864,1.9657715 0.2578654,0.010852 v -0.00413 l 0.38809,0.081649 0.1824178,0.269751 0.116272,0.4831703 L 7.128247,6.8897604 6.8631469,7.173464 6.5360351,7.3171245 6.2543986,7.3264262 6.1644816,7.3233256 5.8373698,7.1796652 5.5722697,6.8959615 5.4797688,6.3502584 5.5960408,5.8670838 5.7789754,5.5973328 6.216158,5.5053487 Z" /></g><g
     inkscape:groupmode="layer"
     id="layer7"
     inkscape:label="hidden"
     style="display:none"
     sodipodi:insensitive="true"><g
       id="g1865"
       transform="translate(0.1100233,0.20666915)"><path
         style="fill:#bd93f9;fill-opacity:1;stroke:none;stroke-width:0.264583px;stroke-linecap:butt;stroke-linejoin:miter;stroke-opacity:1"
         d="m 8.3925448,5.2304986 0.894469,1.5492652 v 0.5310654 l -0.718691,1.2448086 h -1.42167 l -1e-7,0.533455 -0.6248653,-0.980789 0.6174615,-0.9060847 0.00397,0.5074137 1.1266869,-0.0018 0.109808,-0.3868462 -0.9093519,-1.5535642 z"
         id="path373-3-6"
         sodipodi:nodetypes="ccccccccccccc" /><path
         style="fill:#bd93f9;fill-opacity:1;stroke:none;stroke-width:0.264583px;stroke-linecap:butt;stroke-linejoin:miter;stroke-opacity:1"
         d="M 6.1604841,8.8270122 H 4.3715463 L 3.9116303,8.5614792 3.1929396,7.3166702 3.9037747,6.0854676 3.4417892,5.8187401 l 1.16182,-0.050755 0.4759629,0.98778 -0.4414184,-0.2502689 -0.5617846,0.9766393 0.2801145,0.28852 1.8001019,-0.01074 z"
         id="path373-3"
         sodipodi:nodetypes="ccccccccccccc" /><path
         style="fill:#bd93f9;fill-opacity:1;stroke:none;stroke-width:0.264583px;stroke-linecap:butt;stroke-linejoin:miter;stroke-opacity:1"
         d="M 4.3268817,5.0123669 5.2213506,3.4631014 5.681267,3.1975689 7.1186485,3.197569 7.8294837,4.4287716 8.2914692,4.1620441 7.7545144,5.1935873 6.6610903,5.1118932 7.0985388,4.8547481 6.5336366,3.8799088 6.1437137,3.978235 5.2529639,5.542539 Z"
         id="path373-3-7"
         sodipodi:nodetypes="ccccccccccccc" /></g></g><g
     inkscape:groupmode="layer"
     id="layer8"
     inkscape:label="reset"
     style="display:none"
     sodipodi:insensitive="true"><path
       id="path2007"
       style="display:inline;fill:#bd93f9;fill-opacity:1;stroke:none;stroke-width:0.97;stroke-linecap:round;stroke-linejoin:round;paint-order:markers stroke fill"
       d="M 6.35,3.2638835 A 3.0862224,3.0862224 0 0 0 3.2638835,6.35 3.0862224,3.0862224 0 0 0 6.35,9.4361165 3.0862224,3.0862224 0 0 0 9.4361165,6.35 3.0862224,3.0862224 0 0 0 8.5994751,4.2379842 L 7.7121908,5.049821 A 1.8835493,1.8835493 0 0 1 8.233606,6.35 1.8835493,1.8835493 0 0 1 6.35,8.233606 1.8835493,1.8835493 0 0 1 4.466394,6.35 1.8835493,1.8835493 0 0 1 6.35,4.466394 1.8835493,1.8835493 0 0 1 6.4817749,4.4710449 L 6.5639404,3.2721517 A 3.0862224,3.0862224 0 0 0 6.35,3.2638835 Z" /><path
       style="display:inline;fill:#bd93f9;fill-opacity:1;stroke:none;stroke-width:0.264583px;stroke-linecap:butt;stroke-linejoin:miter;stroke-opacity:1"
       d="M 7.9929742,3.8801317 6.3965998,2.8746812 V 4.903825 Z"
       id="path1951" /></g><g
     inkscape:groupmode="layer"
     id="layer9"
     inkscape:label="shutdown"
     sodipodi:insensitive="true"
     style="display:none"><path
       id="path2105"
       style="fill:#bd93f9;fill-opacity:1;stroke:none;stroke-width:0.97;stroke-linecap:round;stroke-linejoin:round;paint-order:markers stroke fill"
       d="M 7.4041992,3.5320841 V 4.7387288 A 1.9252673,1.9252673 0 0 1 8.2754639,6.35 1.9252673,1.9252673 0 0 1 6.35,8.2754639 1.9252673,1.9252673 0 0 1 4.4245361,6.35 1.9252673,1.9252673 0 0 1 5.2446411,4.7754191 V 3.5517212 A 3.0085218,3.0085218 0 0 0 3.3413981,6.35 3.0085218,3.0085218 0 0 0 6.35,9.3586019 3.0085218,3.0085218 0 0 0 9.3586019,6.35 3.0085218,3.0085218 0 0 0 7.4041992,3.5320841 Z" /><rect
       style="fill:#bd93f9;fill-opacity:1;stroke:none;stroke-width:0.97;stroke-linecap:round;stroke-linejoin:round;paint-order:markers stroke fill"
       id="rect2161"
       width="0.96562493"
       height="3.120738"
       x="5.8671875"
       y="3.0699422" /></g><g
     inkscape:groupmode="layer"
     id="g2215"
     inkscape:label="rescue"
     style="display:none"
     sodipodi:insensitive="true"><g
       id="g2222"
       transform="matrix(0,1,1,0,0.19460115,0)"><path
         id="path2211"
         style="display:inline;fill:#bd93f9;fill-opacity:1;stroke:none;stroke-width:0.97;stroke-linecap:round;stroke-linejoin:round;paint-order:markers stroke fill"
         d="M 6.35,3.2638835 A 3.0862224,3.0862224 0 0 0 3.2638835,6.35 3.0862224,3.0862224 0 0 0 6.35,9.4361165 3.0862224,3.0862224 0 0 0 9.4361165,6.35 3.0862224,3.0862224 0 0 0 8.5994751,4.2379842 L 7.7121908,5.049821 A 1.8835493,1.8835493 0 0 1 8.233606,6.35 1.8835493,1.8835493 0 0 1 6.35,8.233606 1.8835493,1.8835493 0 0 1 4.466394,6.35 1.8835493,1.8835493 0 0 1 6.35,4.466394 1.8835493,1.8835493 0 0 1 6.4817749,4.4710449 L 6.5639404,3.2721517 A 3.0862224,3.0862224 0 0 0 6.35,3.2638835 Z" /><path
         style="display:inline;fill:#bd93f9;fill-opacity:1;stroke:none;stroke-width:0.264583px;stroke-linecap:butt;stroke-linejoin:miter;stroke-opacity:1"
         d="M 7.9929742,3.8801317 6.3965998,2.8746812 V 4.903825 Z"
         id="path2213" /></g><path
       style="display:inline;fill:#bd93f9;fill-opacity:1;stroke:none;stroke-width:0.264583px;stroke-linecap:butt;stroke-linejoin:miter;stroke-opacity:1"
       d="M 6.4495549,5.1656153 V 6.5406525 H 7.278953 V 6.2520894 H 6.7419507 V 5.1676338 Z"
       id="path2224"
       sodipodi:nodetypes="ccccccc" /></g><g
     inkscape:groupmode="layer"
     id="layer10"
     inkscape:label="fwupdate"
     sodipodi:insensitive="true"
     style="display:none"><path
       id="rect2387"
       style="fill:#bd93f9;fill-opacity:1;stroke:none;stroke-width:0.97;stroke-linecap:round;stroke-linejoin:round;paint-order:markers stroke fill"
       d="m 4.1108602,5.1407715 v 2.418457 h 4.4782796 v -2.418457 z m 0.225826,0.2955892 H 8.3633138 V 7.2636393 H 4.3366862 Z" /><g
       id="g2381"
       transform="translate(-0.1994149,-0.89370133)"><path
         style="display:inline;fill:#bd93f9;fill-opacity:1;stroke:none;stroke-width:0.264583px;stroke-linecap:butt;stroke-linejoin:miter;stroke-opacity:1"
         d="M 6.5311132,4.6180461 7.4304905,3.4755047 H 5.6683393 Z"
         id="path2374"
         sodipodi:nodetypes="cccc" /><rect
         style="fill:#bd93f9;fill-opacity:1;stroke:none;stroke-width:0.97;stroke-linecap:round;stroke-linejoin:round;paint-order:markers stroke fill"
         id="rect2377"
         width="0.85022944"
         height="1.5986233"
         x="6.103055"
         y="2.1737444" /></g><rect
       style="fill:#bd93f9;fill-opacity:1;stroke:none;stroke-width:0.97;stroke-linecap:round;stroke-linejoin:round;paint-order:markers stroke fill"
       id="rect2383"
       width="3.3874598"
       height="1.1695879"
       x="4.65627"
       y="5.7652059" /><rect
       style="fill:#bd93f9;fill-opacity:1;stroke:none;stroke-width:0.97;stroke-linecap:round;stroke-linejoin:round;paint-order:markers stroke fill"
       id="rect2390"
       width="0.093328327"
       height="1.0120751"
       x="4.732842"
       y="4.2316689" /><rect
       style="fill:#bd93f9;fill-opacity:1;stroke:none;stroke-width:0.97;stroke-linecap:round;stroke-linejoin:round;paint-order:markers stroke fill"
       id="rect2390-3"
       width="0.093328327"
       height="1.0120751"
       x="5.2971697"
       y="4.2378078" /><rect
       style="fill:#bd93f9;fill-opacity:1;stroke:none;stroke-width:0.97;stroke-linecap:round;stroke-linejoin:round;paint-order:markers stroke fill"
       id="rect2390-5"
       width="0.093328327"
       height="1.0120751"
       x="5.8795547"
       y="4.2348371" /><rect
       style="fill:#bd93f9;fill-opacity:1;stroke:none;stroke-width:0.97;stroke-linecap:round;stroke-linejoin:round;paint-order:markers stroke fill"
       id="rect2390-6"
       width="0.093328327"
       height="1.0120751"
       x="6.6752796"
       y="4.2268643" /><rect
       style="fill:#bd93f9;fill-opacity:1;stroke:none;stroke-width:0.97;stroke-linecap:round;stroke-linejoin:round;paint-order:markers stroke fill"
       id="rect2390-2"
       width="0.093328327"
       height="1.0120751"
       x="7.3000317"
       y="4.2322612" /><rect
       style="fill:#bd93f9;fill-opacity:1;stroke:none;stroke-width:0.97;stroke-linecap:round;stroke-linejoin:round;paint-order:markers stroke fill"
       id="rect2390-9"
       width="0.093328327"
       height="1.0120751"
       x="7.8789983"
       y="4.2417178" /><rect
       style="fill:#bd93f9;fill-opacity:1;stroke:none;stroke-width:0.97;stroke-linecap:round;stroke-linejoin:round;paint-order:markers stroke fill"
       id="rect2390-27"
       width="0.093328327"
       height="1.0120751"
       x="4.6788006"
       y="7.4918966" /><rect
       style="fill:#bd93f9;fill-opacity:1;stroke:none;stroke-width:0.97;stroke-linecap:round;stroke-linejoin:round;paint-order:markers stroke fill"
       id="rect2390-3-0"
       width="0.093328327"
       height="1.0120751"
       x="5.2431283"
       y="7.4980354" /><rect
       style="fill:#bd93f9;fill-opacity:1;stroke:none;stroke-width:0.97;stroke-linecap:round;stroke-linejoin:round;paint-order:markers stroke fill"
       id="rect2390-5-9"
       width="0.093328327"
       height="1.0120751"
       x="5.8255134"
       y="7.4950647" /><rect
       style="fill:#bd93f9;fill-opacity:1;stroke:none;stroke-width:0.97;stroke-linecap:round;stroke-linejoin:round;paint-order:markers stroke fill"
       id="rect2390-6-3"
       width="0.093328327"
       height="1.0120751"
       x="6.6212382"
       y="7.487092" /><rect
       style="fill:#bd93f9;fill-opacity:1;stroke:none;stroke-width:0.97;stroke-linecap:round;stroke-linejoin:round;paint-order:markers stroke fill"
       id="rect2390-2-6"
       width="0.093328327"
       height="1.0120751"
       x="7.2459903"
       y="7.4924889" /><rect
       style="fill:#bd93f9;fill-opacity:1;stroke:none;stroke-width:0.97;stroke-linecap:round;stroke-linejoin:round;paint-order:markers stroke fill"
       id="rect2390-9-0"
       width="0.093328327"
       height="1.0120751"
       x="7.8249564"
       y="7.5019455" /></g><g
     inkscape:groupmode="layer"
     id="layer11"
     inkscape:label="memtest"
     sodipodi:insensitive="true"
     style="display:none"><g
       id="g2642"
       transform="translate(0.04205999,-0.07222741)"><rect
         style="display:inline;fill:#bd93f9;fill-opacity:1;stroke:none;stroke-width:0.97;stroke-linecap:round;stroke-linejoin:round;paint-order:markers stroke fill"
         id="rect2584"
         width="5.159111"
         height="4.3807516"
         x="3.7283845"
         y="3.8170879" /><rect
         style="fill:#bd93f9;fill-opacity:1;stroke:none;stroke-width:0.97;stroke-linecap:round;stroke-linejoin:round;paint-order:markers stroke fill"
         id="rect2587"
         width="0.46405825"
         height="0.98061019"
         x="4.432179"
         y="8.0274258" /><rect
         style="fill:#bd93f9;fill-opacity:1;stroke:none;stroke-width:0.97;stroke-linecap:round;stroke-linejoin:round;paint-order:markers stroke fill"
         id="rect2587-6"
         width="0.46405825"
         height="0.98061019"
         x="5.5274582"
         y="8.0403976" /><rect
         style="fill:#bd93f9;fill-opacity:1;stroke:none;stroke-width:0.97;stroke-linecap:round;stroke-linejoin:round;paint-order:markers stroke fill"
         id="rect2587-2"
         width="0.46405825"
         height="0.98061019"
         x="6.5965123"
         y="8.040226" /><rect
         style="fill:#bd93f9;fill-opacity:1;stroke:none;stroke-width:0.97;stroke-linecap:round;stroke-linejoin:round;paint-order:markers stroke fill"
         id="rect2587-61"
         width="0.46405825"
         height="0.98061019"
         x="7.6531224"
         y="8.0467567" /></g></g><g
     inkscape:groupmode="layer"
     id="layer12"
     inkscape:label="mok"
     sodipodi:insensitive="true"
     style="display:none"><g
       id="g2708"
       transform="translate(0.0578776,0.02525919)"><path
         id="path2695"
         style="display:inline;fill:#bd93f9;fill-opacity:1;stroke:none;stroke-width:0.97;stroke-linecap:round;stroke-linejoin:round;paint-order:markers stroke fill"
         d="m 6.2921224,3.4142619 a 1.5963081,1.5963081 0 0 0 -1.596285,1.596285 1.5963081,1.5963081 0 0 0 1.596285,1.596285 1.5963081,1.5963081 0 0 0 1.596285,-1.596285 1.5963081,1.5963081 0 0 0 -1.596285,-1.596285 z m 0.042375,0.9343099 A 0.63536102,0.63536102 0 0 1 6.9701172,4.9836751 0.63536102,0.63536102 0 0 1 6.3344971,5.6192952 0.63536102,0.63536102 0 0 1 5.6993937,4.9836751 0.63536102,0.63536102 0 0 1 6.3344974,4.3485718 Z" /><rect
         style="display:inline;fill:#bd93f9;fill-opacity:1;stroke:none;stroke-width:0.97;stroke-linecap:round;stroke-linejoin:round;paint-order:markers stroke fill"
         id="rect2689"
         width="0.99543315"
         height="3.2296078"
         x="5.8114481"
         y="6.0056119" /><rect
         style="display:inline;fill:#bd93f9;fill-opacity:1;stroke:none;stroke-width:0.97;stroke-linecap:round;stroke-linejoin:round;paint-order:markers stroke fill"
         id="rect2691"
         width="1.3399945"
         height="0.44125989"
         x="6.47756"
         y="7.4022293" /><rect
         style="display:inline;fill:#bd93f9;fill-opacity:1;stroke:none;stroke-width:0.97;stroke-linecap:round;stroke-linejoin:round;paint-order:markers stroke fill"
         id="rect2693"
         width="1.139654"
         height="0.40263984"
         x="6.7192445"
         y="8.4844875" /></g></g><g
     inkscape:groupmode="layer"
     id="layer13"
     inkscape:label="netboot"
     sodipodi:insensitive="true"
     style="display:none"><g
       id="g2771"
       transform="translate(0.01240235,-0.19125099)"><path
         id="rect2761"
         style="display:inline;fill:#bd93f9;fill-opacity:1;stroke:none;stroke-width:0.97;stroke-linecap:round;stroke-linejoin:round;paint-order:markers stroke fill"
         d="M 3.7610107,4.0896729 V 8.7328003 H 8.9141846 V 4.0896729 Z M 5.2286214,5.5319621 H 7.4873983 V 7.2372843 H 6.8946696 V 7.5287394 H 5.7417684 V 7.2372843 h -0.513147 z" /><rect
         style="display:inline;fill:#bd93f9;fill-opacity:1;stroke:none;stroke-width:0.97;stroke-linecap:round;stroke-linejoin:round;paint-order:markers stroke fill"
         id="rect2759"
         width="2.4825604"
         height="0.53200221"
         x="5.0915027"
         y="8.4608269" /></g></g><g
     inkscape:groupmode="layer"
     id="layer14"
     inkscape:label="part"
     sodipodi:insensitive="true"
     style="display:none"><g
       id="g2829"
       transform="translate(0.00490925,0.0071088)"><path
         id="rect2824"
         style="fill:#bd93f9;fill-opacity:1;stroke:none;stroke-width:0.97;stroke-linecap:round;stroke-linejoin:round;paint-order:markers stroke fill"
         d="M 3.7894328,3.8147542 V 8.8986816 H 8.9007487 V 6.7241374 H 5.9836141 V 3.8147542 Z" /><rect
         style="fill:#bd93f9;fill-opacity:1;stroke:none;stroke-width:0.97;stroke-linecap:round;stroke-linejoin:round;paint-order:markers stroke fill"
         id="rect2820"
         width="2.2142029"
         height="2.2414358"
         x="6.6858473"
         y="3.7871008" /></g></g><g
     inkscape:groupmode="layer"
     id="layer15"
     inkscape:label="shell"
     sodipodi:insensitive="true"
     style="display:none"><path
       id="rect2878"
       style="display:inline;fill:#bd93f9;fill-opacity:1;stroke:none;stroke-width:0.97;stroke-linecap:round;stroke-linejoin:round;paint-order:markers stroke fill"
       d="M 3.776772,3.910614 V 8.7893859 H 8.9232279 V 3.910614 Z m 0.8020183,0.5451863 c 0,0 1.2767595,0.796037 1.3027628,0.8252726 0.026004,0.029236 -1.2872599,0.730188 -1.2872599,0.730188 L 4.3865539,5.6267883 5.184438,5.2774556 c 0,0 -0.8180555,-0.5001549 -0.8232055,-0.5022949 -8.303e-4,-0.010411 0.2175578,-0.3193604 0.2175578,-0.3193604 z" /></g><g
     inkscape:groupmode="layer"
     id="layer16"
     inkscape:label="external"
     sodipodi:insensitive="true"
     style="display:none"><g
       id="g3695"
       transform="translate(-0.09817293,0.72231419)"
       style="display:inline"><path
         style="fill:#bd93f9;fill-opacity:1;stroke:none;stroke-width:0.264583px;stroke-linecap:butt;stroke-linejoin:miter;stroke-opacity:1"
         d="M 5.310705,5.0338267 5.282874,6.1406068 6.4795637,7.3398345 V 6.9856918 L 5.4869299,6.0774841 5.4904568,5.0054732 Z"
         id="path3654" /><path
         style="fill:#bd93f9;fill-opacity:1;stroke:none;stroke-width:0.264583px;stroke-linecap:butt;stroke-linejoin:miter;stroke-opacity:1"
         d="M 7.474804,4.8092754 V 5.7842713 L 6.5009521,6.7916871 V 7.045181 L 7.6525048,5.8583348 V 4.8061583 Z"
         id="path3656"
         sodipodi:nodetypes="ccccccc" /><rect
         style="fill:#bd93f9;fill-opacity:1;stroke:none;stroke-width:0.97;stroke-linecap:round;stroke-linejoin:round;paint-order:markers stroke fill"
         id="rect3658"
         width="0.19740145"
         height="4.3043761"
         x="6.3840485"
         y="3.4475853" /><rect
         style="fill:#bd93f9;fill-opacity:1;stroke:none;stroke-width:0.97;stroke-linecap:round;stroke-linejoin:round;paint-order:markers stroke fill"
         id="rect3660"
         width="0.89358276"
         height="0.95854247"
         x="7.1953678"
         y="4.0427837" /><ellipse
         style="fill:#bd93f9;fill-opacity:1;stroke:none;stroke-width:0.97;stroke-linecap:round;stroke-linejoin:round;paint-order:markers stroke fill"
         id="path3662"
         cx="6.4781604"
         cy="7.9883928"
         rx="0.51707238"
         ry="0.53138" /><ellipse
         style="display:inline;fill:#bd93f9;fill-opacity:1;stroke:none;stroke-width:0.97;stroke-linecap:round;stroke-linejoin:round;paint-order:markers stroke fill"
         id="path3662-8"
         cx="5.3244677"
         cy="4.7930846"
         rx="0.51707238"
         ry="0.53138" /><path
         style="fill:#bd93f9;fill-opacity:1;stroke:none;stroke-width:0.264583px;stroke-linecap:butt;stroke-linejoin:miter;stroke-opacity:1"
         d="M 6.4974728,2.7355988 5.8603927,3.5903897 h 1.1873211 z"
         id="path3686" /></g></g><g
     inkscape:groupmode="layer"
     id="layer17"
     inkscape:label="internal"
     style="display:none"
     sodipodi:insensitive="true"><g
       id="g3853"
       transform="translate(0,0.34899651)"><path
         id="rect3750"
         style="display:inline;fill:#bd93f9;fill-opacity:1;stroke:none;stroke-width:0.926948;stroke-linecap:round;stroke-linejoin:round;paint-order:markers stroke fill"
         d="M 5.0875448,2.7533203 V 8.8821452 H 7.6124552 V 2.7533203 h -0.732255 a 0.53015625,0.53015625 0 0 1 0,5.168e-4 A 0.53015625,0.53015625 0 0 1 6.35,3.2840373 0.53015625,0.53015625 0 0 1 5.8197998,2.7538371 a 0.53015625,0.53015625 0 0 1 0,-5.168e-4 z" /><rect
         style="display:inline;fill:#bd93f9;fill-opacity:1;stroke:none;stroke-width:0.882199;stroke-linecap:round;stroke-linejoin:round;paint-order:markers stroke fill"
         id="rect3752"
         width="1.687827"
         height="0.51475132"
         x="5.5060863"
         y="8.7339354" /></g></g><g
     inkscape:groupmode="layer"
     id="layer18"
     inkscape:label="net"
     sodipodi:insensitive="true"
     style="display:none"><path
       id="path3908"
       style="display:inline;fill:#bd93f9;fill-opacity:1;stroke:none;stroke-width:0.97;stroke-linecap:round;stroke-linejoin:round;paint-order:markers stroke fill"
       d="M 6.3497416,3.5922871 A 2.7576985,2.7576985 0 0 0 3.5922872,6.3497416 2.7576985,2.7576985 0 0 0 6.3497416,9.1077128 2.7576985,2.7576985 0 0 0 9.1077128,6.3497416 2.7576985,2.7576985 0 0 0 6.3497416,3.5922871 Z M 6.1321839,3.9261169 6.9378194,4.0578918 v 0.3886068 c 0,0.039137 -0.7255371,0.6077148 -0.7255371,0.6077148 L 5.8805196,4.8392395 5.8903382,4.2961201 5.6169698,4.3240254 5.5301534,4.0702941 Z m -1.3900961,0.7725627 0.015503,0.5746419 c 0,0 0.4176333,0.1705656 0.4733561,0.2087728 0.055723,0.038207 0.1932698,-0.4490682 0.1932698,-0.4490682 0,0 0.4586577,0.3298203 0.5007447,0.3927409 h 5.167e-4 c 0,0 0.070205,0.1400431 -0.0093,0.1400431 -0.079507,0 -0.2869248,0.1735956 -0.3601848,0.2227254 -0.07326,0.04913 -0.2304769,0.1751831 -0.2304769,0.1751831 L 5.2888264,6.41227 c 0,0 -0.2129938,-0.1079819 -0.2992066,-0.1162719 -0.086213,-0.00829 -0.2423624,0.1958537 -0.2423624,0.1958537 l 0.1343587,0.1870686 0.3410644,0.2284099 c 0,0 -0.4024337,0.052276 -0.4588867,0.03824 C 4.7073398,6.9315344 4.217572,6.5678161 4.217572,6.5678161 L 3.9162984,6.2034973 3.9318014,5.6112853 4.1188701,5.7373758 4.287852,5.0940043 Z m 3.2091065,0.2604492 c 0.062383,-0.00131 0.1374593,0.027905 0.1374593,0.027905 l 0.3622518,0.1679487 0.066146,0.5012613 -0.5922119,-0.0093 -0.1989543,0.1591634 0.2392619,-5.168e-4 c 0,0 0.6491896,0.3374447 0.6888468,0.3958415 0.039658,0.058397 0.1578897,0.4876341 0.1255738,0.5891113 C 8.7472515,6.8920186 8.2943258,7.782729 8.2943258,7.782729 L 8.2633199,6.9238667 c 0,0 -0.6225514,-0.042891 -0.8237223,-0.042891 l 0.1147217,-0.304891 c 0,0 -0.4004789,0.083199 -0.4454509,0.083199 -0.044971,0 -0.190686,-0.092364 -0.190686,-0.1255737 0,-0.03321 0.3439619,-0.083199 0.2961059,-0.083199 -0.047857,0 -0.03824,-0.3798218 -0.03824,-0.3798218 L 7.6240825,6.0081603 7.418927,5.8934387 7.4003235,5.5828633 7.8483582,5.4019958 c 0,0 0.037247,-0.2045824 0.020671,-0.3560506 -0.00725,-0.066268 0.033645,-0.085796 0.082165,-0.086816 z M 5.8128235,6.8835591 6.8913106,7.5755065 c 0,0 -1.1191764,1.2944656 -1.1792561,1.3265341 l -0.063045,-1.190625 -0.3229777,-0.066146 0.00362,-0.7239868 z" /></g><g
     inkscape:groupmode="layer"
     id="layer19"
     inkscape:label="optical"
     sodipodi:insensitive="true"><path
       id="path4059"
       style="fill:#bd93f9;fill-opacity:1;stroke:none;stroke-width:0.97;stroke-linecap:round;stroke-linejoin:round;paint-order:markers stroke fill"
       d="M 6.35,5.5453979 A 0.80463457,0.80463457 0 0 0 5.5453979,6.35 0.80463457,0.80463457 0 0 0 6.35,7.1546021 0.80463457,0.80463457 0 0 0 7.1546021,6.35 0.80463457,0.80463457 0 0 0 6.35,5.5453979 Z m 0,0.3622518 A 0.44210851,0.44210851 0 0 1 6.7923503,6.35 0.44210851,0.44210851 0 0 1 6.35,6.7923503 0.44210851,0.44210851 0 0 1 5.9076497,6.35 0.44210851,0.44210851 0 0 1 6.35,5.9076497 Z" /><path
       id="path4063"
       style="fill:#bd93f9;fill-opacity:1;stroke:none;stroke-width:0.97;stroke-linecap:round;stroke-linejoin:round;paint-order:markers stroke fill"
       d="M 6.35,3.6566243 A 2.6934252,2.6934252 0 0 0 3.6566243,6.35 2.6934252,2.6934252 0 0 0 6.35,9.0433757 2.6934252,2.6934252 0 0 0 9.0433757,6.35 2.6934252,2.6934252 0 0 0 6.35,3.6566243 Z m 0,1.5657959 A 1.1277869,1.1277869 0 0 1 7.4775798,6.35 1.1277869,1.1277869 0 0 1 6.35,7.4775798 1.1277869,1.1277869 0 0 1 5.2224202,6.35 1.1277869,1.1277869 0 0 1 6.35,5.2224202 Z" /></g></svg>
